<svg width="46" height="31" viewBox="0 0 46 31" fill="none" xmlns="http://www.w3.org/2000/svg">
<path d="M38.5533 2.71116C37.6887 1.85164 36.6622 1.16981 35.5323 0.704623C34.4024 0.239434 33.1914 0 31.9684 0C30.7454 0 29.5343 0.239434 28.4045 0.704623C27.2746 1.16981 26.248 1.85164 25.3834 2.71116L23.5891 4.49412L21.7947 2.71116C20.0483 0.975808 17.6796 0.000899491 15.2098 0.00089951C12.7399 0.000899528 10.3712 0.975808 8.6248 2.71116C6.87836 4.4465 5.89722 6.80014 5.89722 9.25429C5.89722 11.7084 6.87836 14.0621 8.6248 15.7974L10.4192 17.5804L23.5891 30.6667L36.759 17.5804L38.5533 15.7974C39.4184 14.9383 40.1045 13.9183 40.5727 12.7956C41.0409 11.6729 41.2818 10.4695 41.2818 9.25429C41.2818 8.03904 41.0409 6.83569 40.5727 5.713C40.1045 4.59031 39.4184 3.57027 38.5533 2.71116Z" fill="url(#paint0_linear_1_114)"/>
<g filter="url(#filter0_b_1_114)">
<path d="M19.1667 22.4103C18.8306 22.41 18.5004 22.3213 18.2094 22.1531C17.9185 21.9849 17.6768 21.7431 17.5088 21.452L14.2408 15.5776L12.1517 18.7112C11.9719 18.9705 11.7309 19.1814 11.45 19.3252C11.1691 19.4689 10.8571 19.5411 10.5417 19.5354H1.91667C1.40833 19.5354 0.920823 19.3335 0.561379 18.974C0.201934 18.6146 0 18.1271 0 17.6188C0 17.1104 0.201934 16.6229 0.561379 16.2635C0.920823 15.9041 1.40833 15.7021 1.91667 15.7021H9.51625L12.7842 10.8052C12.9667 10.5323 13.2163 10.3109 13.509 10.1623C13.8017 10.0136 14.1277 9.94255 14.4557 9.95602C14.7838 9.96948 15.1028 10.067 15.3824 10.2392C15.6619 10.4113 15.8925 10.6524 16.0521 10.9393L19.1667 16.6605L24.1787 8.03564C24.35 7.73887 24.5977 7.49344 24.896 7.3249C25.1944 7.15635 25.5324 7.07086 25.875 7.07733C26.2095 7.07935 26.5376 7.16887 26.8268 7.33698C27.116 7.5051 27.3561 7.74597 27.5233 8.03564L32.1137 15.7021L34.0304 14.188C34.3702 13.9243 34.7887 13.7826 35.2188 13.7855H44.0833C44.5917 13.7855 45.0792 13.9874 45.4386 14.3469C45.7981 14.7063 46 15.1938 46 15.7021C46 16.2105 45.7981 16.698 45.4386 17.0574C45.0792 17.4168 44.5917 17.6188 44.0833 17.6188H35.8896L32.775 20.0816C32.5604 20.2582 32.31 20.3859 32.0411 20.456C31.7722 20.5262 31.4913 20.537 31.2178 20.4878C30.9443 20.4385 30.6848 20.3304 30.4573 20.171C30.2297 20.0115 30.0396 19.8044 29.9 19.5641L25.875 12.7697L20.8246 21.452C20.6565 21.7431 20.4149 21.9849 20.1239 22.1531C19.8329 22.3213 19.5028 22.41 19.1667 22.4103Z" fill="white" fill-opacity="0.2"/>
</g>
<defs>
<filter id="filter0_b_1_114" x="-25" y="-17.923" width="96" height="65.3333" filterUnits="userSpaceOnUse" color-interpolation-filters="sRGB">
<feFlood flood-opacity="0" result="BackgroundImageFix"/>
<feGaussianBlur in="BackgroundImageFix" stdDeviation="12.5"/>
<feComposite in2="SourceAlpha" operator="in" result="effect1_backgroundBlur_1_114"/>
<feBlend mode="normal" in="SourceGraphic" in2="effect1_backgroundBlur_1_114" result="shape"/>
</filter>
<linearGradient id="paint0_linear_1_114" x1="5.89722" y1="14.3111" x2="40.4335" y2="14.4889" gradientUnits="userSpaceOnUse">
<stop stop-color="#FF7070"/>
<stop offset="1" stop-color="#FF7070" stop-opacity="0.65"/>
</linearGradient>
</defs>
</svg>
